<svg width="61" height="40" viewBox="0 0 61 40" fill="none" xmlns="http://www.w3.org/2000/svg">
<path d="M49.9672 29.312C48.5004 29.312 47.1271 29.8341 46.0816 30.8057C45.036 31.7773 44.4587 33.0535 44.4587 34.3876C44.4587 35.7363 45.036 37.0124 46.0816 37.9695C47.1427 38.9266 48.516 39.4632 49.9672 39.4632C52.9478 39.4632 55.3822 37.1864 55.3822 34.3876C55.3822 31.5888 52.9478 29.312 49.9672 29.312ZM49.9672 37.433C48.1571 37.433 46.6434 36.0408 46.6434 34.3876C46.6434 32.7344 48.1727 31.3423 49.9672 31.3423C51.7462 31.3423 53.1975 32.7054 53.1975 34.3876C53.1975 36.0698 51.7462 37.433 49.9672 37.433Z" fill="url(#paint0_linear)"/>
<path d="M51.3093 11.881C51.122 11.707 50.8567 11.62 50.5758 11.62H44.1778C43.5692 11.62 43.0854 12.0696 43.0854 12.6351V22.1482C43.0854 22.7138 43.5692 23.1633 44.1778 23.1633H54.3366C54.9452 23.1633 55.429 22.7138 55.429 22.1482V15.782C55.429 15.492 55.3041 15.2309 55.0701 15.0279L51.3093 11.881ZM53.2443 21.1331H45.2701V13.6502H50.1545L53.2443 16.2315V21.1331Z" fill="url(#paint1_linear)"/>
<path d="M19.475 29.312C18.0238 29.312 16.6349 29.8341 15.5894 30.8057C14.5439 31.7773 13.9665 33.0535 13.9665 34.3876C13.9665 35.7363 14.5439 37.0124 15.5894 37.9695C16.6505 38.9266 18.0238 39.4632 19.475 39.4632C22.4556 39.4632 24.89 37.1864 24.89 34.3876C24.89 31.5888 22.4712 29.312 19.475 29.312ZM19.475 37.433C17.6649 37.433 16.1512 36.0408 16.1512 34.3876C16.1512 32.7344 17.6805 31.3423 19.475 31.3423C21.254 31.3423 22.7053 32.7054 22.7053 34.3876C22.7053 36.0698 21.254 37.433 19.475 37.433Z" fill="url(#paint2_linear)"/>
<path d="M11.1576 30.7477H8.48912V27.5138C8.48912 26.9483 8.00537 26.4987 7.39677 26.4987C6.78818 26.4987 6.30442 26.9483 6.30442 27.5138V31.7628C6.30442 32.3284 6.78818 32.7779 7.39677 32.7779H11.1576C11.7662 32.7779 12.2499 32.3284 12.2499 31.7628C12.2499 31.1972 11.7506 30.7477 11.1576 30.7477Z" fill="url(#paint3_linear)"/>
<path d="M1.09235 25.2951H16.2292C16.8378 25.2951 17.3216 24.8455 17.3216 24.2799C17.3216 23.7144 16.8378 23.2648 16.2292 23.2648H1.09235C0.483755 23.2648 0 23.7144 0 24.2799C0 24.8455 0.483755 25.2951 1.09235 25.2951Z" fill="url(#paint4_linear)"/>
<path d="M19.5687 18.2908C19.3658 18.1022 19.0849 17.9862 18.804 17.9862L3.66718 17.8992C3.05858 17.8992 2.55922 18.3488 2.55922 18.8998C2.55922 19.1754 2.66846 19.4364 2.87132 19.6249C3.07419 19.8134 3.35508 19.9295 3.63597 19.9295L18.7728 20.0165C19.3658 20.0165 19.8652 19.5669 19.8808 19.0158C19.8808 18.7403 19.7715 18.4938 19.5687 18.2908Z" fill="url(#paint5_linear)"/>
<path d="M21.3164 12.6496H6.17958C5.57099 12.6496 5.08723 13.0992 5.08723 13.6647C5.08723 14.2303 5.57099 14.6799 6.17958 14.6799H21.3164C21.925 14.6799 22.4088 14.2303 22.4088 13.6647C22.4088 13.0992 21.925 12.6496 21.3164 12.6496Z" fill="url(#paint6_linear)"/>
<path d="M57.2704 32.7489H59.7984C60.407 32.7489 60.8907 32.2994 60.8907 31.7483L60.9844 14.1578C60.9688 13.8388 60.8283 13.5487 60.5786 13.3602L51.6526 6.48642C51.4497 6.3269 51.2156 6.25439 50.9504 6.25439H40.2765V1.9329C40.2765 1.36734 39.7928 0.917786 39.1842 0.917786H7.39677C6.78818 0.917786 6.30442 1.36734 6.30442 1.9329V10.4309C6.30442 10.9964 6.78818 11.446 7.39677 11.446C8.00537 11.446 8.48912 10.9964 8.48912 10.4309V2.94802H38.1074V30.7477H27.7145C27.1059 30.7477 26.6221 31.1972 26.6221 31.7628C26.6221 32.3284 27.1059 32.7779 27.7145 32.7779H42.9606C43.5692 32.7779 44.0529 32.3284 44.0529 31.7628C44.0529 31.1972 43.5692 30.7477 42.9606 30.7477H40.2921V8.28462H50.5602L58.7997 14.6218V14.6944L58.7061 30.7187H57.2704C56.6618 30.7187 56.178 31.1682 56.178 31.7338C56.178 32.2994 56.6618 32.7489 57.2704 32.7489Z" fill="url(#paint7_linear)"/>
<defs>
<linearGradient id="paint0_linear" x1="30.1961" y1="0.917787" x2="68.2928" y2="10.5463" gradientUnits="userSpaceOnUse">
<stop stop-color="#DA0000"/>
<stop offset="1" stop-color="#72006B"/>
</linearGradient>
<linearGradient id="paint1_linear" x1="30.1961" y1="0.917787" x2="68.2928" y2="10.5463" gradientUnits="userSpaceOnUse">
<stop stop-color="#DA0000"/>
<stop offset="1" stop-color="#72006B"/>
</linearGradient>
<linearGradient id="paint2_linear" x1="30.1961" y1="0.917787" x2="68.2928" y2="10.5463" gradientUnits="userSpaceOnUse">
<stop stop-color="#DA0000"/>
<stop offset="1" stop-color="#72006B"/>
</linearGradient>
<linearGradient id="paint3_linear" x1="30.1961" y1="0.917787" x2="68.2928" y2="10.5463" gradientUnits="userSpaceOnUse">
<stop stop-color="#DA0000"/>
<stop offset="1" stop-color="#72006B"/>
</linearGradient>
<linearGradient id="paint4_linear" x1="30.1961" y1="0.917787" x2="68.2928" y2="10.5463" gradientUnits="userSpaceOnUse">
<stop stop-color="#DA0000"/>
<stop offset="1" stop-color="#72006B"/>
</linearGradient>
<linearGradient id="paint5_linear" x1="30.1961" y1="0.917787" x2="68.2928" y2="10.5463" gradientUnits="userSpaceOnUse">
<stop stop-color="#DA0000"/>
<stop offset="1" stop-color="#72006B"/>
</linearGradient>
<linearGradient id="paint6_linear" x1="30.1961" y1="0.917787" x2="68.2928" y2="10.5463" gradientUnits="userSpaceOnUse">
<stop stop-color="#DA0000"/>
<stop offset="1" stop-color="#72006B"/>
</linearGradient>
<linearGradient id="paint7_linear" x1="30.1961" y1="0.917787" x2="68.2928" y2="10.5463" gradientUnits="userSpaceOnUse">
<stop stop-color="#DA0000"/>
<stop offset="1" stop-color="#72006B"/>
</linearGradient>
</defs>
</svg>
