<svg width="35" height="43" viewBox="0 0 35 43" fill="none" xmlns="http://www.w3.org/2000/svg">
<path d="M34.9583 40.7937C34.5325 35.8189 34.1067 30.844 33.6384 25.8259C33.2552 21.3269 32.8294 16.8712 32.4036 12.3722C32.2758 11.1609 31.8926 10.8149 30.7004 10.7716C29.8488 10.7283 28.9972 10.7716 28.1457 10.7716C25.5483 10.7716 25.5483 10.7716 25.5483 8.2193C25.5483 8.04626 25.5483 7.87322 25.5483 7.70018C25.378 3.41749 21.9717 0.0432409 17.7564 -1.86797e-05C13.4133 -0.0432782 9.87924 3.11467 9.53861 7.39736C9.45345 8.47885 9.41087 9.51708 9.32571 10.7283C7.45223 10.7283 5.79165 10.7283 4.08849 10.7283C3.15175 10.7283 2.6408 11.2042 2.51306 12.1127C2.4279 12.5885 2.38532 13.0211 2.34274 13.497C1.87437 19.0774 1.406 24.6579 0.937634 30.2384C0.639581 33.7857 0.298948 37.333 0.0434737 40.8803C-0.0842635 42.6972 0.21379 42.9567 1.91695 43C12.2637 43 22.6104 43 32.9997 43C34.7454 43 35.0861 42.6106 34.9583 40.7937ZM14.3075 4.06638C15.8829 2.76859 17.6712 2.50904 19.4595 3.24445C21.333 4.02312 22.4401 5.5372 22.6955 7.5704C22.8233 8.56537 22.6955 9.56034 22.6955 10.6418C19.2466 10.6418 15.8829 10.6418 12.3914 10.6418C12.2637 8.17604 12.2211 5.84002 14.3075 4.06638ZM2.93885 40.1016C3.15175 37.8521 3.32206 35.6459 3.53496 33.4829C4.00333 28.335 4.4717 23.1438 4.94007 17.996C5.02523 16.8279 5.19554 15.7032 5.2807 14.5785C5.32328 13.9728 5.53617 13.67 6.17486 13.7133C6.98386 13.7565 7.79287 13.7565 8.60187 13.7133C9.1554 13.7133 9.36829 13.9296 9.32571 14.4919C9.28313 15.1841 9.28313 15.8762 9.32571 16.5251C9.36829 17.4336 10.007 18.0825 10.816 18.0392C11.6676 17.996 12.1785 17.4768 12.3062 16.6117C12.3488 16.0925 12.3914 15.6167 12.3062 15.0976C12.1785 14.0161 12.5191 13.6267 13.6262 13.67C16.2235 13.7565 18.8208 13.7565 21.3756 13.67C22.3549 13.6267 22.653 14.0161 22.5252 14.9245C22.4826 15.4436 22.4826 16.006 22.5252 16.5251C22.6104 17.3903 23.2916 18.0825 24.0581 17.996C24.9097 17.9094 25.4206 17.4336 25.4632 16.5251C25.5058 15.8762 25.5058 15.2273 25.4632 14.5785C25.4206 13.9728 25.6335 13.67 26.2722 13.67C29.3805 13.497 29.423 13.497 29.7211 16.5684C30.232 21.8461 30.6578 27.1237 31.1262 32.3581C31.2965 34.3481 31.5094 36.3813 31.6797 38.3712C31.7223 38.8903 31.7649 39.4094 31.7649 40.0583C22.2272 40.1016 12.6469 40.1016 2.93885 40.1016Z" fill="url(#paint0_linear)"/>
<defs>
<linearGradient id="paint0_linear" x1="17.3302" y1="-0.000456692" x2="40.1824" y2="2.9679" gradientUnits="userSpaceOnUse">
<stop stop-color="#DA0000"/>
<stop offset="1" stop-color="#72006B"/>
</linearGradient>
</defs>
</svg>
