<svg width="39" height="50" viewBox="0 0 39 50" fill="none" xmlns="http://www.w3.org/2000/svg">
<g clip-path="url(#clip0)">
<path d="M38.2678 17.4235C37.438 16.535 36.6082 15.5972 35.7296 14.8075C34.8999 14.0671 34.8022 13.2774 34.9487 12.2902C35.1439 11.0563 35.2903 9.77295 35.4368 8.48964C35.5344 7.40375 35.0951 6.71274 33.9236 6.56466C32.5569 6.36723 31.1902 6.16979 29.8723 5.82429C29.3842 5.72557 28.8473 5.3307 28.6032 4.88648C27.9199 3.75124 27.3341 2.46792 26.7484 1.28332C26.0162 -0.0987151 25.3817 -0.296148 23.9662 0.394868C22.7459 0.987168 21.5744 1.62883 20.3542 2.12241C19.9149 2.31984 19.3291 2.27049 18.8898 2.12241C17.6696 1.62883 16.4981 0.93781 15.2778 0.394868C13.9111 -0.24679 13.1301 1.60746e-06 12.398 1.33268C11.8122 2.51728 11.2753 3.70188 10.592 4.78776C10.2991 5.23199 9.76218 5.67621 9.22526 5.77493C7.80974 6.12044 6.34541 6.31787 4.92989 6.56466C3.85605 6.76209 3.41675 7.35439 3.56318 8.48964C3.75843 9.97039 4.00248 11.4018 4.10011 12.8825C4.14892 13.4255 3.85605 14.0671 3.51437 14.462C2.68459 15.4492 1.70837 16.3376 0.829768 17.3248C-0.146452 18.3613 -0.195263 19.0523 0.732146 20.0888C1.65955 21.1254 2.63578 22.1125 3.56318 23.1491C3.90486 23.5439 4.10011 24.1362 4.10011 24.6298C4.00248 26.1106 3.80724 27.5913 3.56318 29.0227C3.36794 30.1579 3.90486 30.7502 4.92989 30.9477C5.80849 31.1451 6.68709 31.3425 7.56569 31.3425C8.73715 31.3919 9.03002 31.9348 8.98121 33.0207C8.93239 37.8578 8.93239 42.7443 8.98121 47.5814C8.98121 49.8519 9.95743 50.4442 12.0075 49.4077C14.2528 48.2725 16.4981 47.0879 18.7434 46.002C19.1339 45.8045 19.8173 45.8045 20.2565 46.002C22.5995 47.1372 24.8936 48.3712 27.2365 49.5558C28.8961 50.3949 29.9211 49.8026 29.9211 47.8776C29.9211 43.3366 29.9211 38.845 29.9211 34.304C29.9211 33.4156 29.9211 32.5271 29.9211 31.54C31.3367 31.2932 32.5081 31.1451 33.7284 30.8983C35.0951 30.6515 35.4856 30.2073 35.388 28.8253C35.2903 27.69 35.2415 26.5054 35.0951 25.3702C34.9487 24.2349 35.0951 23.3465 36.0225 22.5074C36.9011 21.7177 37.6333 20.7799 38.4631 19.8914C39.244 19.0523 39.244 18.5094 38.2678 17.4235ZM26.846 46.1007C24.8936 45.1135 22.9412 44.2251 21.0863 43.1885C19.9149 42.5469 18.9387 42.4975 17.7672 43.1392C15.9612 44.1264 14.0576 45.0148 12.0563 46.002C12.0563 42.6456 12.0563 39.4373 12.0563 36.1797C13.5694 37.9566 13.7159 38.154 15.6195 36.92C18.2553 35.1925 20.647 35.2419 23.2828 36.92C25.1865 38.1046 25.2841 37.9566 26.7972 36.229C26.846 39.536 26.846 42.695 26.846 46.1007ZM32.4593 21.7177C31.7271 22.458 31.4831 23.2971 31.6783 24.2843C31.9224 25.5183 32.1176 26.8016 32.3617 28.1836C31.0926 28.4304 29.8235 28.7759 28.5544 28.9733C27.3341 29.1214 26.602 29.7631 26.0651 30.849C25.577 31.9348 24.9424 33.0207 24.3079 34.156C22.99 33.5143 21.7697 32.8233 20.5006 32.3297C19.9149 32.1323 19.1339 32.1323 18.597 32.3297C17.2791 32.8233 16.0588 33.5143 14.6921 34.2053C14.0576 33.0207 13.423 31.8855 12.8373 30.7009C12.3492 29.6644 11.617 29.1708 10.4943 28.9733C9.27407 28.8253 8.0538 28.5291 6.78471 28.233C6.97996 26.7522 7.27282 25.4195 7.32163 24.0869C7.32163 23.3465 7.12639 22.4087 6.63828 21.8657C5.75968 20.8292 4.68584 20.0395 3.56318 19.1017C4.73465 17.8677 5.61325 16.8806 6.54066 15.9921C7.22401 15.3011 7.56569 14.6101 7.32163 13.5735C7.02877 12.2409 6.83352 10.8588 6.58947 9.37809C7.95618 9.08194 9.27407 8.73643 10.592 8.58835C11.5682 8.48964 12.1051 7.94669 12.5444 7.15696C13.179 5.97236 13.8623 4.78776 14.5457 3.5538C15.9124 4.19546 17.1326 4.88648 18.4505 5.38006C19.0363 5.57749 19.7684 5.57749 20.3542 5.38006C21.6233 4.88648 22.8435 4.19546 24.1614 3.5538C24.796 4.7384 25.4793 5.87364 26.0162 7.05824C26.4555 8.04541 27.1877 8.58835 28.2127 8.73643C29.189 8.8845 30.214 9.13129 31.1902 9.27937C31.8736 9.37809 32.1664 9.72359 31.9712 10.3653C30.7021 13.8697 31.9224 16.4857 34.7046 18.5587C34.7534 18.6081 34.8022 18.7068 34.9487 18.8549C34.1677 19.8421 33.3379 20.8292 32.4593 21.7177Z" fill="url(#paint0_linear)"/>
</g>
<defs>
<linearGradient id="paint0_linear" x1="19.3571" y1="0.00769167" x2="44.8538" y2="3.1865" gradientUnits="userSpaceOnUse">
<stop stop-color="#DA0000"/>
<stop offset="1" stop-color="#72006B"/>
</linearGradient>
<clipPath id="clip0">
<rect width="39" height="50" fill="white"/>
</clipPath>
</defs>
</svg>
